<?xml version="1.0" encoding="UTF-8"?>
<svg xmlns="http://www.w3.org/2000/svg" xmlns:xlink="http://www.w3.org/1999/xlink" width="128px" height="120px" viewBox="0 0 128 120" version="1.1">
<g id="surface1">
<path style=" stroke:none;fill-rule:nonzero;fill:rgb(98.823529%,99.215686%,99.215686%);fill-opacity:1;" d="M 0 0 C 42.238281 0 84.480469 0 128 0 C 128 39.601562 128 79.199219 128 120 C 85.761719 120 43.519531 120 0 120 C 0 80.398438 0 40.800781 0 0 Z M 0 0 "/>
<path style=" stroke:none;fill-rule:nonzero;fill:rgb(11.372549%,23.137255%,38.82353%);fill-opacity:1;" d="M 48.136719 37.933594 C 60.03125 37.902344 60.03125 37.902344 65.035156 37.898438 C 68.480469 37.894531 71.929688 37.886719 75.378906 37.878906 C 77.886719 37.871094 80.398438 37.867188 82.910156 37.863281 C 84.238281 37.863281 85.566406 37.863281 86.894531 37.855469 C 88.382812 37.851562 89.871094 37.851562 91.359375 37.851562 C 91.792969 37.847656 92.226562 37.84375 92.675781 37.84375 C 99.519531 37.859375 105.167969 39.613281 110.222656 44.382812 C 114.515625 48.894531 116.199219 54.074219 116.136719 60.199219 C 115.921875 66.714844 113.746094 72.003906 109.035156 76.597656 C 104.542969 80.773438 99.175781 81.832031 93.226562 81.773438 C 92.859375 81.773438 92.488281 81.773438 92.109375 81.769531 C 90.746094 81.765625 89.386719 81.757812 88.023438 81.746094 C 84.96875 81.734375 81.914062 81.71875 78.769531 81.703125 C 78.769531 71.230469 78.769531 60.757812 78.769531 49.96875 C 81.65625 49.96875 84.546875 49.96875 87.519531 49.96875 C 87.519531 57.550781 87.519531 65.136719 87.519531 72.949219 C 96.460938 73.054688 96.460938 73.054688 103.613281 68.964844 C 106.328125 65.957031 106.660156 62.542969 106.597656 58.636719 C 106.335938 55.492188 105.117188 52.554688 102.835938 50.335938 C 99.976562 48.210938 97.191406 47.320312 93.628906 47.269531 C 93.191406 47.261719 93.191406 47.261719 92.75 47.25 C 91.796875 47.230469 90.847656 47.214844 89.894531 47.203125 C 89.570312 47.199219 89.242188 47.195312 88.90625 47.191406 C 87.175781 47.167969 85.445312 47.152344 83.714844 47.140625 C 82.289062 47.128906 80.863281 47.105469 79.4375 47.074219 C 77.707031 47.035156 75.980469 47.011719 74.25 47.007812 C 73.59375 47 72.9375 46.988281 72.285156 46.96875 C 68.5 46.753906 68.5 46.753906 65.1875 48.269531 C 64.257812 49.28125 63.488281 50.289062 62.722656 51.429688 C 62.226562 52.0625 61.726562 52.691406 61.21875 53.320312 C 60.867188 53.78125 60.519531 54.246094 60.171875 54.710938 C 59.804688 53.980469 59.804688 53.980469 60 53.261719 C 60.109375 52.976562 60.21875 52.691406 60.328125 52.394531 C 60.445312 52.085938 60.5625 51.773438 60.679688 51.453125 C 60.804688 51.128906 60.929688 50.804688 61.058594 50.472656 C 61.183594 50.144531 61.304688 49.816406 61.433594 49.480469 C 61.738281 48.667969 62.050781 47.859375 62.359375 47.050781 C 60.792969 47.050781 59.230469 47.050781 57.617188 47.050781 C 57.617188 50.179688 57.617188 53.3125 57.617188 56.535156 C 63.636719 56.535156 69.652344 56.535156 75.851562 56.535156 C 75.851562 59.421875 75.851562 62.3125 75.851562 65.289062 C 69.835938 65.289062 63.816406 65.289062 57.617188 65.289062 C 57.617188 70.824219 57.617188 76.363281 57.617188 82.066406 C 56.011719 81.425781 54.867188 80.722656 53.539062 79.671875 C 53.226562 79.429688 53.226562 79.429688 52.910156 79.183594 C 48.792969 75.933594 44.441406 72.179688 41.9375 67.476562 C 42.351562 66.234375 42.722656 65.945312 43.714844 65.128906 C 44.527344 64.457031 45.1875 63.871094 45.816406 63.019531 C 45.980469 62.804688 46.144531 62.589844 46.3125 62.371094 C 46.554688 62.371094 46.792969 62.371094 47.042969 62.371094 C 47.285156 62.730469 47.523438 63.09375 47.773438 63.464844 C 47.890625 55.039062 48.011719 46.613281 48.136719 37.933594 Z M 48.136719 37.933594 "/>
<path style=" stroke:none;fill-rule:nonzero;fill:rgb(12.156863%,23.529412%,38.82353%);fill-opacity:1;" d="M 12.035156 37.933594 C 15.605469 37.902344 19.179688 37.871094 22.859375 37.84375 C 24.539062 37.820312 24.539062 37.820312 26.25 37.800781 C 27.148438 37.796875 28.050781 37.792969 28.949219 37.789062 C 29.632812 37.78125 29.632812 37.78125 30.332031 37.769531 C 34.578125 37.765625 38.5 38.621094 41.9375 41.214844 C 42.386719 41.546875 42.386719 41.546875 42.84375 41.882812 C 43.816406 42.722656 44.421875 43.527344 45.105469 44.613281 C 45.316406 44.941406 45.53125 45.273438 45.746094 45.609375 C 47.527344 49 47.605469 53.382812 46.632812 57.058594 C 45.304688 60.746094 42.566406 63.929688 39.019531 65.652344 C 38.660156 65.652344 38.296875 65.652344 37.925781 65.652344 C 39.828125 68.457031 41.792969 71.207031 43.804688 73.929688 C 46.738281 77.894531 46.738281 77.894531 47.910156 79.535156 C 48.195312 79.9375 48.195312 79.9375 48.488281 80.347656 C 48.867188 80.972656 48.867188 80.972656 48.867188 81.703125 C 38.917969 82.523438 38.917969 82.523438 36.878906 80.800781 C 36.054688 79.835938 35.480469 78.761719 34.953125 77.609375 C 34.472656 76.597656 33.824219 75.710938 33.183594 74.792969 C 32.246094 73.410156 31.40625 72.027344 30.648438 70.539062 C 29.921875 69.421875 28.972656 68.46875 28.078125 67.476562 C 25.792969 67.355469 23.507812 67.238281 21.152344 67.113281 C 21.152344 71.925781 21.152344 76.742188 21.152344 81.703125 C 18.140625 81.703125 15.132812 81.703125 12.035156 81.703125 C 12.035156 67.257812 12.035156 52.816406 12.035156 37.933594 Z M 12.035156 37.933594 "/>
<path style=" stroke:none;fill-rule:nonzero;fill:rgb(69.01961%,81.960785%,20%);fill-opacity:1;" d="M 60.171875 67.84375 C 62.457031 67.84375 64.742188 67.84375 67.101562 67.84375 C 67.101562 70.128906 67.101562 72.414062 67.101562 74.773438 C 69.808594 73.152344 72.054688 71.453125 74.316406 69.28125 C 75.121094 68.570312 75.121094 68.570312 75.851562 68.570312 C 76.707031 76.183594 76.707031 76.183594 75.421875 78.449219 C 74.234375 79.722656 72.761719 80.492188 71.222656 81.261719 C 70.3125 81.738281 69.472656 82.28125 68.621094 82.851562 C 68.039062 83.238281 67.457031 83.621094 66.871094 84.003906 C 66.59375 84.1875 66.320312 84.371094 66.035156 84.558594 C 64.082031 85.765625 64.082031 85.765625 62.828125 85.523438 C 62.554688 85.347656 62.277344 85.167969 61.996094 84.984375 C 61.679688 84.867188 61.367188 84.75 61.042969 84.628906 C 60.171875 83.890625 60.171875 83.890625 60.011719 83.171875 C 59.957031 82.199219 59.964844 81.246094 59.992188 80.273438 C 59.996094 79.917969 59.996094 79.5625 60 79.199219 C 60.011719 78.066406 60.035156 76.929688 60.058594 75.796875 C 60.066406 75.03125 60.074219 74.261719 60.082031 73.492188 C 60.101562 71.609375 60.132812 69.726562 60.171875 67.84375 Z M 60.171875 67.84375 "/>
<path style=" stroke:none;fill-rule:nonzero;fill:rgb(98.039216%,98.431373%,98.823529%);fill-opacity:1;" d="M 21.152344 47.050781 C 22.929688 47.019531 24.707031 46.988281 26.484375 46.972656 C 27.089844 46.964844 27.691406 46.953125 28.296875 46.941406 C 29.167969 46.921875 30.039062 46.914062 30.910156 46.910156 C 31.3125 46.898438 31.3125 46.898438 31.71875 46.886719 C 33.609375 46.886719 34.644531 47.328125 36.101562 48.511719 C 37.351562 49.859375 37.671875 50.910156 37.742188 52.707031 C 37.652344 55.007812 36.871094 56.171875 35.214844 57.742188 C 33.515625 58.863281 31.796875 58.765625 29.804688 58.757812 C 29.351562 58.757812 28.894531 58.757812 28.425781 58.757812 C 27.855469 58.753906 27.28125 58.75 26.691406 58.746094 C 23.949219 58.734375 23.949219 58.734375 21.152344 58.722656 C 21.152344 54.871094 21.152344 51.019531 21.152344 47.050781 Z M 21.152344 47.050781 "/>
<path style=" stroke:none;fill-rule:nonzero;fill:rgb(12.54902%,57.647061%,65.490198%);fill-opacity:1;" d="M 53.605469 18.601562 C 53.605469 21.128906 53.605469 23.65625 53.605469 26.261719 C 52.203125 26.792969 50.796875 27.328125 49.390625 27.855469 C 48.996094 28.007812 48.597656 28.15625 48.191406 28.3125 C 47.804688 28.457031 47.417969 28.605469 47.019531 28.753906 C 46.664062 28.886719 46.3125 29.023438 45.949219 29.160156 C 44.75 29.582031 43.523438 29.925781 42.300781 30.273438 C 42.542969 33.042969 42.785156 35.808594 43.03125 38.664062 C 41.207031 37.933594 41.207031 37.933594 40.410156 37.410156 C 38.933594 36.589844 37.359375 36.1875 35.738281 35.746094 C 35.179688 32.417969 34.90625 29.273438 35.007812 25.898438 C 37.277344 24.664062 39.601562 23.6875 42.023438 22.804688 C 44.671875 21.835938 47.265625 20.753906 49.859375 19.65625 C 50.1875 19.519531 50.515625 19.382812 50.855469 19.242188 C 51.148438 19.121094 51.441406 18.996094 51.746094 18.867188 C 52.511719 18.601562 52.511719 18.601562 53.605469 18.601562 Z M 53.605469 18.601562 "/>
<path style=" stroke:none;fill-rule:nonzero;fill:rgb(14.117648%,58.039218%,65.490198%);fill-opacity:1;" d="M 62.722656 9.484375 C 64.625 10 65.425781 11.117188 66.550781 12.628906 C 66.730469 12.859375 66.90625 13.089844 67.085938 13.328125 C 69.648438 16.714844 71.640625 19.644531 71.109375 24.074219 C 70.765625 25.363281 70.386719 26.597656 69.652344 27.71875 C 68.894531 27.945312 68.894531 27.945312 68.195312 28.085938 C 68.066406 27.84375 67.9375 27.601562 67.804688 27.355469 C 67.222656 26.265625 66.636719 25.179688 66.050781 24.097656 C 65.847656 23.714844 65.644531 23.335938 65.4375 22.945312 C 65.144531 22.402344 65.144531 22.402344 64.847656 21.851562 C 64.667969 21.515625 64.488281 21.183594 64.300781 20.839844 C 63.882812 20.015625 63.882812 20.015625 63.089844 19.695312 C 60.523438 24.25 60.523438 24.25 57.984375 28.816406 C 56.292969 27.359375 55.679688 25.066406 55.285156 22.925781 C 55 17.703125 59.640625 13.164062 62.722656 9.484375 Z M 62.722656 9.484375 "/>
<path style=" stroke:none;fill-rule:nonzero;fill:rgb(69.01961%,81.568629%,17.254902%);fill-opacity:1;" d="M 72.933594 18.601562 C 74.414062 18.898438 75.578125 19.25 76.964844 19.804688 C 77.601562 20.054688 77.601562 20.054688 78.253906 20.316406 C 78.707031 20.496094 79.160156 20.675781 79.613281 20.859375 C 80.53125 21.226562 81.453125 21.589844 82.375 21.957031 C 82.820312 22.132812 83.265625 22.308594 83.722656 22.492188 C 85.742188 23.28125 87.773438 24.023438 89.816406 24.757812 C 90.804688 25.167969 90.804688 25.167969 91.53125 25.898438 C 91.605469 26.890625 91.636719 27.84375 91.625 28.835938 C 91.621094 29.117188 91.621094 29.394531 91.621094 29.683594 C 91.589844 31.671875 91.359375 33.464844 90.804688 35.378906 C 88.636719 35.378906 86.472656 35.378906 84.238281 35.378906 C 84.359375 33.695312 84.480469 32.007812 84.605469 30.273438 C 84.003906 30.152344 83.402344 30.03125 82.78125 29.910156 C 81.914062 29.578125 81.058594 29.242188 80.207031 28.882812 C 77.8125 27.902344 75.398438 27.050781 72.933594 26.261719 C 72.933594 23.734375 72.933594 21.207031 72.933594 18.601562 Z M 72.933594 18.601562 "/>
<path style=" stroke:none;fill-rule:nonzero;fill:rgb(91.764706%,47.843137%,17.254902%);fill-opacity:1;" d="M 63.089844 22.613281 C 64.230469 23.59375 64.824219 24.785156 65.527344 26.101562 C 65.753906 26.523438 65.980469 26.945312 66.214844 27.378906 C 66.734375 28.449219 66.734375 28.449219 66.734375 29.179688 C 68.539062 29.179688 70.34375 29.179688 72.207031 29.179688 C 71.476562 31.003906 70.617188 32.582031 69.652344 34.285156 C 71.578125 34.40625 73.503906 34.527344 75.488281 34.652344 C 75.488281 34.890625 75.488281 35.132812 75.488281 35.378906 C 69.351562 35.378906 63.210938 35.378906 56.890625 35.378906 C 57.195312 33.84375 57.488281 32.972656 58.195312 31.632812 C 58.386719 31.273438 58.574219 30.910156 58.769531 30.539062 C 58.96875 30.164062 59.167969 29.792969 59.375 29.40625 C 59.566406 29.035156 59.761719 28.667969 59.964844 28.285156 C 60.972656 26.375 62.003906 24.480469 63.089844 22.613281 Z M 63.089844 22.613281 "/>
<path style=" stroke:none;fill-rule:nonzero;fill:rgb(24.313726%,55.686277%,63.921571%);fill-opacity:1;" d="M 48.136719 37.933594 C 64.023438 37.933594 79.90625 37.933594 96.273438 37.933594 C 96.273438 38.054688 96.273438 38.175781 96.273438 38.296875 C 80.507812 38.296875 64.742188 38.296875 48.5 38.296875 C 48.5 50.453125 48.5 62.613281 48.5 75.136719 C 46.53125 73.445312 45.21875 72.164062 43.761719 70.144531 C 43.578125 69.902344 43.394531 69.660156 43.207031 69.410156 C 42.75 68.789062 42.339844 68.132812 41.9375 67.476562 C 42.351562 66.234375 42.722656 65.945312 43.714844 65.128906 C 44.527344 64.457031 45.1875 63.871094 45.816406 63.019531 C 45.980469 62.804688 46.144531 62.589844 46.3125 62.371094 C 46.554688 62.371094 46.792969 62.371094 47.042969 62.371094 C 47.285156 62.730469 47.523438 63.09375 47.773438 63.464844 C 47.890625 55.039062 48.011719 46.613281 48.136719 37.933594 Z M 48.136719 37.933594 "/>
<path style=" stroke:none;fill-rule:nonzero;fill:rgb(27.843139%,35.294119%,46.666667%);fill-opacity:1;" d="M 25.890625 96.65625 C 30.226562 96.445312 30.226562 96.445312 32.089844 98.117188 C 32.675781 99.285156 32.632812 100.492188 32.457031 101.761719 C 31.59375 103.175781 31.042969 103.5625 29.539062 104.316406 C 28.335938 104.316406 27.132812 104.316406 25.890625 104.316406 C 25.890625 101.789062 25.890625 99.261719 25.890625 96.65625 Z M 25.890625 96.65625 "/>
<path style=" stroke:none;fill-rule:nonzero;fill:rgb(94.117647%,96.470588%,94.117647%);fill-opacity:1;" d="M 63.089844 19.332031 C 64.648438 20.667969 65.496094 22.339844 66.460938 24.117188 C 66.628906 24.417969 66.796875 24.71875 66.96875 25.027344 C 68.195312 27.257812 68.195312 27.257812 68.195312 28.085938 C 68.433594 28.085938 68.675781 28.085938 68.921875 28.085938 C 68.921875 28.324219 68.921875 28.566406 68.921875 28.816406 C 70.125 28.816406 71.328125 28.816406 72.570312 28.816406 C 72.75 29.535156 72.75 29.535156 72.933594 30.273438 C 72.332031 30.753906 71.730469 31.238281 71.109375 31.734375 C 71.792969 30 71.792969 30 72.207031 29.179688 C 70.398438 29.179688 68.59375 29.179688 66.734375 29.179688 C 65.109375 26.109375 65.109375 26.109375 63.453125 22.980469 C 62.519531 24.222656 61.875 25.332031 61.195312 26.71875 C 60.90625 27.308594 60.90625 27.308594 60.609375 27.910156 C 60.464844 28.207031 60.320312 28.507812 60.171875 28.816406 C 59.929688 28.574219 59.691406 28.332031 59.441406 28.085938 C 59.082031 28.207031 58.71875 28.324219 58.347656 28.449219 C 58.917969 26.957031 59.59375 25.523438 60.308594 24.097656 C 60.414062 23.878906 60.519531 23.660156 60.628906 23.4375 C 61.355469 21.984375 62.164062 20.664062 63.089844 19.332031 Z M 63.089844 19.332031 "/>
<path style=" stroke:none;fill-rule:nonzero;fill:rgb(19.607843%,27.843139%,39.215687%);fill-opacity:1;" d="M 11.304688 96.65625 C 11.996094 96.632812 12.6875 96.613281 13.402344 96.589844 C 13.984375 96.570312 13.984375 96.570312 14.582031 96.550781 C 15.808594 96.667969 16.296875 96.859375 17.140625 97.75 C 17.230469 99.097656 17.230469 99.097656 17.140625 100.304688 C 16.417969 100.664062 16.417969 100.664062 15.679688 101.035156 C 15.921875 101.378906 16.164062 101.726562 16.410156 102.082031 C 17.140625 103.222656 17.140625 103.222656 17.140625 103.953125 C 16.660156 103.953125 16.175781 103.953125 15.679688 103.953125 C 15.332031 103.421875 15.332031 103.421875 14.972656 102.878906 C 14.339844 101.683594 14.339844 101.683594 13.21875 101.445312 C 12.949219 101.429688 12.679688 101.414062 12.398438 101.398438 C 12.398438 102.242188 12.398438 103.082031 12.398438 103.953125 C 12.039062 103.953125 11.675781 103.953125 11.304688 103.953125 C 11.304688 101.542969 11.304688 99.136719 11.304688 96.65625 Z M 11.304688 96.65625 "/>
<path style=" stroke:none;fill-rule:nonzero;fill:rgb(34.509805%,66.274512%,69.803923%);fill-opacity:1;" d="M 52.878906 96.65625 C 56.523438 96.480469 56.523438 96.480469 58.074219 97.226562 C 58.710938 98.117188 58.710938 98.117188 58.757812 99.414062 C 58.347656 100.667969 58.347656 100.667969 57.550781 101.375 C 56.40625 101.808594 55.546875 101.847656 54.335938 101.761719 C 54.335938 102.605469 54.335938 103.449219 54.335938 104.316406 C 53.855469 104.316406 53.375 104.316406 52.878906 104.316406 C 52.878906 101.789062 52.878906 99.261719 52.878906 96.65625 Z M 52.878906 96.65625 "/>
<path style=" stroke:none;fill-rule:nonzero;fill:rgb(21.176471%,58.039218%,61.960787%);fill-opacity:1;" d="M 74.757812 96.65625 C 75.238281 96.65625 75.71875 96.65625 76.214844 96.65625 C 76.835938 97.375 76.835938 97.375 77.402344 98.296875 C 77.6875 98.753906 77.6875 98.753906 77.976562 99.222656 C 78.117188 99.457031 78.257812 99.695312 78.40625 99.9375 C 78.546875 99.703125 78.6875 99.464844 78.832031 99.222656 C 79.117188 98.765625 79.117188 98.765625 79.40625 98.296875 C 79.59375 97.992188 79.78125 97.6875 79.972656 97.375 C 80.175781 97.136719 80.382812 96.902344 80.59375 96.65625 C 81.074219 96.65625 81.554688 96.65625 82.050781 96.65625 C 82.050781 99.183594 82.050781 101.710938 82.050781 104.316406 C 81.570312 104.316406 81.089844 104.316406 80.59375 104.316406 C 80.472656 102.75 80.351562 101.1875 80.226562 99.574219 C 79.625 100.417969 79.023438 101.257812 78.40625 102.128906 C 77.632812 101.171875 76.898438 100.230469 76.214844 99.210938 C 76.097656 100.773438 75.976562 102.339844 75.851562 103.953125 C 75.492188 103.953125 75.128906 103.953125 74.757812 103.953125 C 74.757812 101.542969 74.757812 99.136719 74.757812 96.65625 Z M 74.757812 96.65625 "/>
<path style=" stroke:none;fill-rule:nonzero;fill:rgb(20.392157%,57.254905%,60.784316%);fill-opacity:1;" d="M 91.898438 96.65625 C 93.644531 97.09375 94.109375 97.839844 95.089844 99.234375 C 95.238281 99.441406 95.386719 99.648438 95.542969 99.859375 C 95.910156 100.371094 96.273438 100.882812 96.636719 101.398438 C 96.757812 99.832031 96.878906 98.269531 97.003906 96.65625 C 97.363281 96.65625 97.726562 96.65625 98.097656 96.65625 C 98.097656 99.0625 98.097656 101.472656 98.097656 103.953125 C 96.351562 103.515625 95.882812 102.769531 94.90625 101.375 C 94.757812 101.167969 94.605469 100.960938 94.453125 100.746094 C 94.082031 100.238281 93.71875 99.722656 93.355469 99.210938 C 93.234375 100.773438 93.117188 102.339844 92.992188 103.953125 C 92.628906 103.953125 92.269531 103.953125 91.898438 103.953125 C 91.898438 101.542969 91.898438 99.136719 91.898438 96.65625 Z M 91.898438 96.65625 "/>
<path style=" stroke:none;fill-rule:nonzero;fill:rgb(24.313726%,60.392159%,64.313728%);fill-opacity:1;" d="M 84.238281 96.65625 C 86.042969 96.65625 87.847656 96.65625 89.710938 96.65625 C 89.710938 97.019531 89.710938 97.378906 89.710938 97.75 C 88.265625 97.75 86.820312 97.75 85.332031 97.75 C 85.332031 98.472656 85.332031 99.195312 85.332031 99.9375 C 86.65625 99.9375 87.980469 99.9375 89.34375 99.9375 C 89.34375 100.179688 89.34375 100.421875 89.34375 100.667969 C 88.019531 100.667969 86.695312 100.667969 85.332031 100.667969 C 85.332031 101.511719 85.332031 102.355469 85.332031 103.222656 C 86.777344 103.222656 88.222656 103.222656 89.710938 103.222656 C 89.710938 103.582031 89.710938 103.945312 89.710938 104.316406 C 87.902344 104.316406 86.097656 104.316406 84.238281 104.316406 C 84.238281 101.789062 84.238281 99.261719 84.238281 96.65625 Z M 84.238281 96.65625 "/>
<path style=" stroke:none;fill-rule:nonzero;fill:rgb(23.529412%,30.588236%,43.137255%);fill-opacity:1;" d="M 18.964844 96.65625 C 20.769531 96.65625 22.574219 96.65625 24.433594 96.65625 C 24.433594 97.136719 24.433594 97.621094 24.433594 98.117188 C 23.109375 98.117188 21.785156 98.117188 20.421875 98.117188 C 20.421875 98.71875 20.421875 99.320312 20.421875 99.9375 C 21.625 99.9375 22.828125 99.9375 24.070312 99.9375 C 24.070312 100.300781 24.070312 100.660156 24.070312 101.035156 C 22.746094 101.035156 21.421875 101.035156 20.058594 101.035156 C 20.058594 101.996094 20.058594 102.960938 20.058594 103.953125 C 19.695312 103.953125 19.335938 103.953125 18.964844 103.953125 C 18.964844 101.542969 18.964844 99.136719 18.964844 96.65625 Z M 18.964844 96.65625 "/>
<path style=" stroke:none;fill-rule:nonzero;fill:rgb(26.666668%,60.392159%,63.137257%);fill-opacity:1;" d="M 41.207031 96.65625 C 41.570312 96.898438 41.929688 97.136719 42.300781 97.386719 C 42.300781 97.625 42.300781 97.867188 42.300781 98.117188 C 41.097656 97.996094 39.894531 97.875 38.65625 97.75 C 38.65625 98.351562 38.65625 98.953125 38.65625 99.574219 C 38.882812 99.617188 39.113281 99.664062 39.347656 99.707031 C 39.792969 99.800781 39.792969 99.800781 40.25 99.894531 C 40.546875 99.953125 40.84375 100.011719 41.148438 100.074219 C 41.9375 100.304688 41.9375 100.304688 42.667969 101.035156 C 42.597656 102.308594 42.597656 102.308594 42.300781 103.585938 C 40.949219 104.488281 40.257812 104.457031 38.65625 104.316406 C 37.765625 103.816406 37.765625 103.816406 37.195312 103.222656 C 37.195312 102.980469 37.195312 102.742188 37.195312 102.492188 C 37.382812 102.550781 37.574219 102.613281 37.765625 102.675781 C 38.921875 102.910156 40.03125 102.878906 41.207031 102.855469 C 41.328125 102.375 41.449219 101.894531 41.574219 101.398438 C 41.34375 101.355469 41.117188 101.308594 40.878906 101.265625 C 40.433594 101.171875 40.433594 101.171875 39.976562 101.078125 C 39.679688 101.019531 39.386719 100.960938 39.078125 100.898438 C 38.289062 100.667969 38.289062 100.667969 37.5625 99.9375 C 37.449219 98.664062 37.449219 98.664062 37.5625 97.386719 C 38.90625 96.488281 39.621094 96.542969 41.207031 96.65625 Z M 41.207031 96.65625 "/>
<path style=" stroke:none;fill-rule:nonzero;fill:rgb(15.294118%,53.333336%,57.647061%);fill-opacity:1;" d="M 67.464844 96.65625 C 69.148438 96.65625 70.832031 96.65625 72.570312 96.65625 C 72.570312 97.019531 72.570312 97.378906 72.570312 97.75 C 71.125 97.75 69.679688 97.75 68.195312 97.75 C 68.195312 98.472656 68.195312 99.195312 68.195312 99.9375 C 69.515625 99.9375 70.839844 99.9375 72.207031 99.9375 C 72.207031 100.300781 72.207031 100.660156 72.207031 101.035156 C 70.882812 101.035156 69.558594 101.035156 68.195312 101.035156 C 68.195312 101.753906 68.195312 102.476562 68.195312 103.222656 C 69.636719 103.222656 71.082031 103.222656 72.570312 103.222656 C 72.570312 103.460938 72.570312 103.703125 72.570312 103.953125 C 70.886719 103.953125 69.199219 103.953125 67.464844 103.953125 C 67.464844 101.542969 67.464844 99.136719 67.464844 96.65625 Z M 67.464844 96.65625 "/>
<path style=" stroke:none;fill-rule:nonzero;fill:rgb(21.960784%,59.215689%,62.7451%);fill-opacity:1;" d="M 44.488281 96.65625 C 44.851562 96.65625 45.210938 96.65625 45.585938 96.65625 C 45.609375 97.191406 45.609375 97.191406 45.636719 97.734375 C 45.664062 98.199219 45.691406 98.664062 45.722656 99.140625 C 45.746094 99.601562 45.773438 100.0625 45.796875 100.539062 C 45.863281 101.808594 45.863281 101.808594 46.679688 102.855469 C 47.800781 102.949219 47.800781 102.949219 48.867188 102.855469 C 49.605469 101.617188 49.730469 100.550781 49.824219 99.117188 C 49.851562 98.726562 49.878906 98.332031 49.90625 97.925781 C 49.925781 97.628906 49.941406 97.328125 49.960938 97.019531 C 50.199219 97.019531 50.441406 97.019531 50.691406 97.019531 C 50.738281 97.894531 50.773438 98.765625 50.804688 99.644531 C 50.820312 99.886719 50.832031 100.132812 50.851562 100.386719 C 50.882812 101.820312 50.742188 102.425781 49.851562 103.570312 C 48.867188 104.316406 48.867188 104.316406 47.566406 104.519531 C 46.132812 104.285156 45.710938 104.007812 44.855469 102.855469 C 44.421875 101.558594 44.453125 100.507812 44.46875 99.140625 C 44.46875 98.675781 44.472656 98.214844 44.476562 97.734375 C 44.480469 97.378906 44.484375 97.023438 44.488281 96.65625 Z M 44.488281 96.65625 "/>
<path style=" stroke:none;fill-rule:nonzero;fill:rgb(36.078432%,67.843139%,70.19608%);fill-opacity:1;" d="M 99.921875 96.65625 C 101.84375 96.65625 103.769531 96.65625 105.753906 96.65625 C 105.753906 97.019531 105.753906 97.378906 105.753906 97.75 C 105.03125 97.75 104.3125 97.75 103.566406 97.75 C 103.566406 99.917969 103.566406 102.082031 103.566406 104.316406 C 103.085938 104.195312 102.605469 104.074219 102.109375 103.953125 C 102.109375 101.90625 102.109375 99.859375 102.109375 97.75 C 101.386719 97.75 100.664062 97.75 99.921875 97.75 C 99.921875 97.390625 99.921875 97.027344 99.921875 96.65625 Z M 99.921875 96.65625 "/>
<path style=" stroke:none;fill-rule:nonzero;fill:rgb(95.294118%,96.862745%,97.647059%);fill-opacity:1;" d="M 27.351562 98.117188 C 29.664062 97.984375 29.664062 97.984375 30.609375 98.503906 C 31.226562 99.632812 31.152344 100.507812 30.996094 101.761719 C 30.40625 102.46875 30.40625 102.46875 29.539062 102.855469 C 28.816406 102.855469 28.09375 102.855469 27.351562 102.855469 C 27.351562 101.292969 27.351562 99.726562 27.351562 98.117188 Z M 27.351562 98.117188 "/>
<path style=" stroke:none;fill-rule:nonzero;fill:rgb(90.588236%,55.686277%,30.19608%);fill-opacity:1;" d="M 62.359375 47.050781 C 63.683594 47.050781 65.007812 47.050781 66.371094 47.050781 C 64.394531 49.789062 62.21875 52.34375 59.804688 54.710938 C 60.550781 52.113281 61.417969 49.585938 62.359375 47.050781 Z M 62.359375 47.050781 "/>
<path style=" stroke:none;fill-rule:nonzero;fill:rgb(30.980393%,65.098041%,68.627453%);fill-opacity:1;" d="M 60.535156 96.65625 C 60.898438 96.65625 61.257812 96.65625 61.628906 96.65625 C 61.628906 98.703125 61.628906 100.75 61.628906 102.855469 C 62.953125 102.855469 64.277344 102.855469 65.640625 102.855469 C 65.640625 103.339844 65.640625 103.820312 65.640625 104.316406 C 63.957031 104.316406 62.269531 104.316406 60.535156 104.316406 C 60.535156 101.789062 60.535156 99.261719 60.535156 96.65625 Z M 60.535156 96.65625 "/>
<path style=" stroke:none;fill-rule:nonzero;fill:rgb(22.352941%,58.823532%,62.7451%);fill-opacity:1;" d="M 106.847656 96.65625 C 108.539062 96.859375 108.539062 96.859375 109.144531 97.601562 C 109.25 97.832031 109.359375 98.0625 109.46875 98.296875 C 109.980469 99.589844 109.980469 99.589844 110.859375 99.9375 C 110.957031 99.601562 111.054688 99.261719 111.15625 98.914062 C 111.558594 97.835938 111.769531 97.316406 112.683594 96.65625 C 113.042969 96.65625 113.40625 96.65625 113.777344 96.65625 C 113.296875 97.667969 112.75 98.5625 112.113281 99.484375 C 111.152344 100.988281 110.957031 102.179688 110.859375 103.953125 C 110.5 103.953125 110.136719 103.953125 109.765625 103.953125 C 109.757812 103.492188 109.75 103.035156 109.742188 102.5625 C 109.503906 100.226562 108.183594 98.523438 106.847656 96.65625 Z M 106.847656 96.65625 "/>
<path style=" stroke:none;fill-rule:nonzero;fill:rgb(31.764707%,63.921571%,66.274512%);fill-opacity:1;" d="M 80.59375 96.65625 C 81.074219 96.65625 81.554688 96.65625 82.050781 96.65625 C 82.050781 99.183594 82.050781 101.710938 82.050781 104.316406 C 81.570312 104.316406 81.089844 104.316406 80.59375 104.316406 C 80.472656 102.75 80.351562 101.1875 80.226562 99.574219 C 80.109375 99.816406 79.988281 100.054688 79.863281 100.304688 C 79.621094 100.304688 79.382812 100.304688 79.132812 100.304688 C 79.308594 99.765625 79.480469 99.222656 79.65625 98.683594 C 79.753906 98.386719 79.851562 98.085938 79.953125 97.773438 C 80.226562 97.019531 80.226562 97.019531 80.59375 96.65625 Z M 80.59375 96.65625 "/>
<path style=" stroke:none;fill-rule:nonzero;fill:rgb(17.647059%,24.313726%,36.078432%);fill-opacity:1;" d="M 16.046875 97.75 C 16.40625 97.75 16.769531 97.75 17.140625 97.75 C 17.140625 98.59375 17.140625 99.4375 17.140625 100.304688 C 16.417969 100.664062 16.417969 100.664062 15.679688 101.035156 C 15.921875 101.378906 16.164062 101.726562 16.410156 102.082031 C 17.140625 103.222656 17.140625 103.222656 17.140625 103.953125 C 16.660156 103.953125 16.175781 103.953125 15.679688 103.953125 C 15.179688 103.230469 14.695312 102.5 14.222656 101.761719 C 13.457031 101.257812 13.457031 101.257812 12.761719 101.035156 C 12.761719 100.914062 12.761719 100.792969 12.761719 100.667969 C 13.605469 100.667969 14.449219 100.667969 15.316406 100.667969 C 15.558594 99.707031 15.796875 98.742188 16.046875 97.75 Z M 16.046875 97.75 "/>
<path style=" stroke:none;fill-rule:nonzero;fill:rgb(89.803922%,97.647059%,97.647059%);fill-opacity:1;" d="M 54.335938 97.75 C 56.386719 97.660156 56.386719 97.660156 57.617188 98.480469 C 57.480469 99.371094 57.480469 99.371094 57.253906 100.304688 C 56.265625 100.796875 55.425781 100.691406 54.335938 100.667969 C 54.335938 99.707031 54.335938 98.742188 54.335938 97.75 Z M 54.335938 97.75 "/>
<path style=" stroke:none;fill-rule:nonzero;fill:rgb(90.588236%,49.019608%,20.392157%);fill-opacity:1;" d="M 62.359375 47.050781 C 63.683594 47.050781 65.007812 47.050781 66.371094 47.050781 C 64.441406 49.519531 64.441406 49.519531 63.132812 49.945312 C 62.878906 49.953125 62.621094 49.960938 62.359375 49.96875 C 62.359375 49.007812 62.359375 48.042969 62.359375 47.050781 Z M 62.359375 47.050781 "/>
<path style=" stroke:none;fill-rule:nonzero;fill:rgb(16.078432%,55.29412%,60.784316%);fill-opacity:1;" d="M 53.242188 97.019531 C 53.957031 97 54.671875 96.988281 55.382812 96.976562 C 55.980469 96.964844 55.980469 96.964844 56.589844 96.949219 C 57.617188 97.019531 57.617188 97.019531 58.347656 97.75 C 58.210938 99.074219 58.210938 99.074219 57.984375 100.304688 C 57.742188 100.183594 57.5 100.0625 57.253906 99.9375 C 57.253906 99.457031 57.253906 98.976562 57.253906 98.480469 C 55.628906 98.121094 55.628906 98.121094 53.972656 97.75 C 53.972656 98.472656 53.972656 99.195312 53.972656 99.9375 C 53.730469 99.9375 53.488281 99.9375 53.242188 99.9375 C 53.242188 98.976562 53.242188 98.011719 53.242188 97.019531 Z M 53.242188 97.019531 "/>
<path style=" stroke:none;fill-rule:nonzero;fill:rgb(21.960784%,60.784316%,65.490198%);fill-opacity:1;" d="M 67.464844 100.667969 C 69.027344 100.667969 70.59375 100.667969 72.207031 100.667969 C 72.207031 100.789062 72.207031 100.910156 72.207031 101.035156 C 70.882812 101.035156 69.558594 101.035156 68.195312 101.035156 C 68.195312 101.753906 68.195312 102.476562 68.195312 103.222656 C 69.636719 103.222656 71.082031 103.222656 72.570312 103.222656 C 72.570312 103.460938 72.570312 103.703125 72.570312 103.953125 C 70.886719 103.953125 69.199219 103.953125 67.464844 103.953125 C 67.464844 102.867188 67.464844 101.785156 67.464844 100.667969 Z M 67.464844 100.667969 "/>
<path style=" stroke:none;fill-rule:nonzero;fill:rgb(15.686275%,23.529412%,37.64706%);fill-opacity:1;" d="M 26.257812 97.019531 C 27.582031 97.019531 28.902344 97.019531 30.269531 97.019531 C 30.269531 97.261719 30.269531 97.503906 30.269531 97.75 C 29.183594 97.75 28.101562 97.75 26.984375 97.75 C 26.984375 99.4375 26.984375 101.121094 26.984375 102.855469 C 26.746094 102.976562 26.503906 103.097656 26.257812 103.222656 C 26.257812 101.175781 26.257812 99.128906 26.257812 97.019531 Z M 26.257812 97.019531 "/>
<path style=" stroke:none;fill-rule:nonzero;fill:rgb(30.588236%,64.705884%,68.235296%);fill-opacity:1;" d="M 42.300781 101.035156 C 42.421875 101.035156 42.542969 101.035156 42.667969 101.035156 C 42.550781 102.265625 42.550781 102.265625 42.300781 103.585938 C 40.949219 104.488281 40.257812 104.457031 38.65625 104.316406 C 37.765625 103.816406 37.765625 103.816406 37.195312 103.222656 C 37.195312 102.980469 37.195312 102.742188 37.195312 102.492188 C 37.382812 102.550781 37.574219 102.613281 37.765625 102.675781 C 38.972656 102.921875 39.976562 102.992188 41.207031 102.855469 C 41.914062 101.984375 41.914062 101.984375 42.300781 101.035156 Z M 42.300781 101.035156 "/>
<path style=" stroke:none;fill-rule:nonzero;fill:rgb(95.294118%,96.862745%,97.647059%);fill-opacity:1;" d="M 12.761719 98.117188 C 13.605469 98.117188 14.449219 98.117188 15.316406 98.117188 C 15.457031 98.71875 15.578125 99.328125 15.679688 99.9375 C 15.316406 100.304688 15.316406 100.304688 14.015625 100.328125 C 13.601562 100.320312 13.191406 100.3125 12.761719 100.304688 C 12.761719 99.582031 12.761719 98.859375 12.761719 98.117188 Z M 12.761719 98.117188 "/>
<path style=" stroke:none;fill-rule:nonzero;fill:rgb(43.921569%,49.019608%,58.039218%);fill-opacity:1;" d="M 11.304688 96.65625 C 12.011719 96.628906 12.71875 96.605469 13.425781 96.589844 C 13.816406 96.574219 14.210938 96.5625 14.617188 96.550781 C 15.679688 96.65625 15.679688 96.65625 16.367188 97.207031 C 16.503906 97.386719 16.636719 97.566406 16.773438 97.75 C 16.535156 97.75 16.292969 97.75 16.046875 97.75 C 16.046875 98.351562 16.046875 98.953125 16.046875 99.574219 C 15.804688 99.214844 15.5625 98.851562 15.316406 98.480469 C 14.015625 98.210938 14.015625 98.210938 12.761719 98.117188 C 12.761719 98.835938 12.761719 99.558594 12.761719 100.304688 C 12.644531 100.304688 12.523438 100.304688 12.398438 100.304688 C 12.398438 99.460938 12.398438 98.617188 12.398438 97.75 C 13.242188 97.75 14.082031 97.75 14.953125 97.75 C 14.953125 97.511719 14.953125 97.269531 14.953125 97.019531 C 13.75 97.019531 12.542969 97.019531 11.304688 97.019531 C 11.304688 96.902344 11.304688 96.78125 11.304688 96.65625 Z M 11.304688 96.65625 "/>
<path style=" stroke:none;fill-rule:nonzero;fill:rgb(24.313726%,58.431375%,63.921571%);fill-opacity:1;" d="M 67.464844 96.65625 C 69.148438 96.65625 70.832031 96.65625 72.570312 96.65625 C 72.570312 97.019531 72.570312 97.378906 72.570312 97.75 C 71.003906 97.75 69.441406 97.75 67.828125 97.75 C 67.707031 97.390625 67.589844 97.027344 67.464844 96.65625 Z M 67.464844 96.65625 "/>
<path style=" stroke:none;fill-rule:nonzero;fill:rgb(30.980393%,37.64706%,48.627451%);fill-opacity:1;" d="M 30.269531 97.019531 C 32.019531 97.917969 32.019531 97.917969 32.386719 98.914062 C 32.410156 99.132812 32.433594 99.351562 32.457031 99.574219 C 32.09375 99.574219 31.734375 99.574219 31.363281 99.574219 C 31.242188 100.054688 31.121094 100.539062 30.996094 101.035156 C 30.875 100.191406 30.757812 99.347656 30.632812 98.480469 C 29.550781 98.359375 28.464844 98.238281 27.351562 98.117188 C 27.351562 97.996094 27.351562 97.875 27.351562 97.75 C 28.3125 97.75 29.277344 97.75 30.269531 97.75 C 30.269531 97.511719 30.269531 97.269531 30.269531 97.019531 Z M 30.269531 97.019531 "/>
<path style=" stroke:none;fill-rule:nonzero;fill:rgb(14.901961%,54.901963%,57.647061%);fill-opacity:1;" d="M 49.960938 97.019531 C 50.199219 97.019531 50.441406 97.019531 50.691406 97.019531 C 50.691406 98.828125 50.691406 100.632812 50.691406 102.492188 C 50.328125 102.492188 49.96875 102.492188 49.59375 102.492188 C 49.714844 100.6875 49.835938 98.882812 49.960938 97.019531 Z M 49.960938 97.019531 "/>
<path style=" stroke:none;fill-rule:nonzero;fill:rgb(21.176471%,55.686277%,60.784316%);fill-opacity:1;" d="M 38.65625 96.65625 C 41.070312 96.566406 41.070312 96.566406 42.300781 97.386719 C 42.300781 97.625 42.300781 97.867188 42.300781 98.117188 C 42.046875 98.109375 41.792969 98.105469 41.53125 98.101562 C 41.199219 98.097656 40.867188 98.097656 40.523438 98.09375 C 40.195312 98.089844 39.863281 98.085938 39.523438 98.078125 C 38.648438 98.054688 38.648438 98.054688 37.925781 98.480469 C 38.167969 97.878906 38.40625 97.277344 38.65625 96.65625 Z M 38.65625 96.65625 "/>
<path style=" stroke:none;fill-rule:nonzero;fill:rgb(16.470589%,23.137255%,37.64706%);fill-opacity:1;" d="M 11.304688 97.019531 C 12.507812 97.019531 13.710938 97.019531 14.953125 97.019531 C 14.953125 97.261719 14.953125 97.503906 14.953125 97.75 C 14.109375 97.75 13.265625 97.75 12.398438 97.75 C 12.398438 98.472656 12.398438 99.195312 12.398438 99.9375 C 12.039062 100.121094 12.039062 100.121094 11.667969 100.304688 C 11.550781 99.21875 11.429688 98.136719 11.304688 97.019531 Z M 11.304688 97.019531 "/>
<path style=" stroke:none;fill-rule:nonzero;fill:rgb(15.294118%,55.29412%,60.784316%);fill-opacity:1;" d="M 100.285156 97.019531 C 102.089844 97.019531 103.894531 97.019531 105.753906 97.019531 C 105.753906 97.261719 105.753906 97.503906 105.753906 97.75 C 104.914062 97.75 104.070312 97.75 103.203125 97.75 C 103.203125 98.113281 103.203125 98.472656 103.203125 98.84375 C 102.960938 98.84375 102.722656 98.84375 102.472656 98.84375 C 102.472656 98.363281 102.472656 97.882812 102.472656 97.386719 C 101.75 97.386719 101.027344 97.386719 100.285156 97.386719 C 100.285156 97.265625 100.285156 97.144531 100.285156 97.019531 Z M 100.285156 97.019531 "/>
<path style=" stroke:none;fill-rule:nonzero;fill:rgb(98.431373%,89.019608%,79.607844%);fill-opacity:1;" d="M 66.734375 28.816406 C 68.660156 28.816406 70.585938 28.816406 72.570312 28.816406 C 72.691406 29.296875 72.808594 29.777344 72.933594 30.273438 C 72.332031 30.753906 71.730469 31.238281 71.109375 31.734375 C 71.792969 30 71.792969 30 72.207031 29.179688 C 70.398438 29.179688 68.59375 29.179688 66.734375 29.179688 C 66.734375 29.058594 66.734375 28.9375 66.734375 28.816406 Z M 66.734375 28.816406 "/>
<path style=" stroke:none;fill-rule:nonzero;fill:rgb(86.666667%,94.901961%,94.901961%);fill-opacity:1;" d="M 60.535156 23.707031 C 60.933594 24.90625 60.828125 25.425781 60.535156 26.625 C 60.296875 26.625 60.054688 26.625 59.804688 26.625 C 59.769531 26.859375 59.730469 27.09375 59.691406 27.332031 C 59.609375 27.582031 59.527344 27.828125 59.441406 28.085938 C 59.082031 28.207031 58.71875 28.324219 58.347656 28.449219 C 58.960938 26.808594 59.738281 25.265625 60.535156 23.707031 Z M 60.535156 23.707031 "/>
<path style=" stroke:none;fill-rule:nonzero;fill:rgb(89.411765%,52.549022%,28.627452%);fill-opacity:1;" d="M 60.898438 26.625 C 61.238281 27.578125 61.320312 27.953125 60.921875 28.90625 C 60.730469 29.222656 60.730469 29.222656 60.535156 29.542969 C 60.296875 29.542969 60.054688 29.542969 59.804688 29.542969 C 59.6875 30.144531 59.566406 30.746094 59.441406 31.367188 C 59.199219 31.367188 58.960938 31.367188 58.710938 31.367188 C 59.226562 29.605469 59.964844 28.1875 60.898438 26.625 Z M 60.898438 26.625 "/>
<path style=" stroke:none;fill-rule:nonzero;fill:rgb(23.529412%,30.588236%,41.176471%);fill-opacity:1;" d="M 26.984375 97.75 C 27.105469 97.75 27.226562 97.75 27.351562 97.75 C 27.351562 99.4375 27.351562 101.121094 27.351562 102.855469 C 27.832031 102.976562 28.3125 103.097656 28.808594 103.222656 C 27.964844 103.34375 27.125 103.460938 26.257812 103.585938 C 26.375 103.347656 26.496094 103.105469 26.621094 102.855469 C 26.703125 101.992188 26.769531 101.125 26.828125 100.257812 C 26.855469 99.789062 26.886719 99.324219 26.917969 98.84375 C 26.953125 98.300781 26.953125 98.300781 26.984375 97.75 Z M 26.984375 97.75 "/>
<path style=" stroke:none;fill-rule:nonzero;fill:rgb(20.392157%,27.450982%,39.215687%);fill-opacity:1;" d="M 16.046875 97.75 C 16.40625 97.75 16.769531 97.75 17.140625 97.75 C 17.140625 98.59375 17.140625 99.4375 17.140625 100.304688 C 16.046875 100.304688 16.046875 100.304688 15.316406 99.9375 C 15.558594 99.21875 15.796875 98.496094 16.046875 97.75 Z M 16.046875 97.75 "/>
<path style=" stroke:none;fill-rule:nonzero;fill:rgb(87.450981%,54.901963%,32.156864%);fill-opacity:1;" d="M 63.089844 22.613281 C 63.449219 22.976562 63.808594 23.335938 64.183594 23.707031 C 64.0625 23.949219 63.941406 24.191406 63.816406 24.4375 C 63.578125 24.4375 63.335938 24.4375 63.089844 24.4375 C 62.847656 24.917969 62.605469 25.402344 62.359375 25.898438 C 62.117188 25.898438 61.878906 25.898438 61.628906 25.898438 C 62.015625 24.65625 62.363281 23.703125 63.089844 22.613281 Z M 63.089844 22.613281 "/>
<path style=" stroke:none;fill-rule:nonzero;fill:rgb(76.47059%,84.705883%,41.960785%);fill-opacity:1;" d="M 73.300781 20.425781 C 73.417969 20.425781 73.539062 20.425781 73.664062 20.425781 C 73.6875 20.785156 73.707031 21.144531 73.730469 21.515625 C 73.761719 21.984375 73.792969 22.453125 73.824219 22.933594 C 73.851562 23.398438 73.882812 23.863281 73.914062 24.34375 C 73.953125 25.488281 73.953125 25.488281 74.394531 26.261719 C 73.910156 26.261719 73.429688 26.261719 72.933594 26.261719 C 73.054688 24.335938 73.175781 22.410156 73.300781 20.425781 Z M 73.300781 20.425781 "/>
<path style=" stroke:none;fill-rule:nonzero;fill:rgb(88.235295%,98.431373%,98.431373%);fill-opacity:1;" d="M 92.992188 98.84375 C 93.351562 99.207031 93.714844 99.566406 94.085938 99.9375 C 93.964844 100.179688 93.84375 100.421875 93.722656 100.667969 C 93.636719 101.289062 93.570312 101.914062 93.515625 102.539062 C 93.484375 102.871094 93.453125 103.203125 93.421875 103.542969 C 93.402344 103.796875 93.378906 104.054688 93.355469 104.316406 C 93.234375 104.316406 93.117188 104.316406 92.992188 104.316406 C 92.992188 102.511719 92.992188 100.707031 92.992188 98.84375 Z M 92.992188 98.84375 "/>
<path style=" stroke:none;fill-rule:nonzero;fill:rgb(35.294119%,65.882355%,70.980394%);fill-opacity:1;" d="M 42.300781 34.285156 C 42.421875 34.285156 42.542969 34.285156 42.667969 34.285156 C 42.785156 35.730469 42.90625 37.175781 43.03125 38.664062 C 42.128906 38.300781 42.128906 38.300781 41.207031 37.933594 C 41.570312 37.8125 41.929688 37.691406 42.300781 37.570312 C 42.300781 36.484375 42.300781 35.402344 42.300781 34.285156 Z M 42.300781 34.285156 "/>
<path style=" stroke:none;fill-rule:nonzero;fill:rgb(86.274511%,96.470588%,97.254902%);fill-opacity:1;" d="M 80.226562 99.210938 C 80.347656 99.210938 80.46875 99.210938 80.59375 99.210938 C 80.59375 99.933594 80.59375 100.652344 80.59375 101.398438 C 79.871094 101.640625 79.148438 101.878906 78.40625 102.128906 C 78.699219 101.640625 78.996094 101.152344 79.292969 100.667969 C 79.457031 100.398438 79.625 100.128906 79.792969 99.847656 C 79.9375 99.636719 80.082031 99.425781 80.226562 99.210938 Z M 80.226562 99.210938 "/>
<path style=" stroke:none;fill-rule:nonzero;fill:rgb(21.568628%,57.647061%,62.352943%);fill-opacity:1;" d="M 94.085938 99.574219 C 94.769531 99.664062 94.769531 99.664062 95.542969 99.9375 C 96 100.691406 96 100.691406 96.273438 101.398438 C 95.914062 101.519531 95.550781 101.640625 95.179688 101.761719 C 94.085938 100.394531 94.085938 100.394531 94.085938 99.574219 Z M 94.085938 99.574219 "/>
<path style=" stroke:none;fill-rule:nonzero;fill:rgb(98.431373%,93.333334%,86.666667%);fill-opacity:1;" d="M 60.898438 25.167969 C 61.152344 25.761719 61.152344 25.761719 61.265625 26.625 C 60.742188 27.8125 60.742188 27.8125 60.171875 28.816406 C 60.050781 28.816406 59.929688 28.816406 59.804688 28.816406 C 59.804688 28.09375 59.804688 27.371094 59.804688 26.625 C 60.046875 26.625 60.289062 26.625 60.535156 26.625 C 60.65625 26.144531 60.777344 25.664062 60.898438 25.167969 Z M 60.898438 25.167969 "/>
<path style=" stroke:none;fill-rule:nonzero;fill:rgb(28.235295%,62.7451%,65.882355%);fill-opacity:1;" d="M 37.195312 102.492188 C 39 102.851562 39 102.851562 40.84375 103.222656 C 40.84375 103.34375 40.84375 103.460938 40.84375 103.585938 C 39.878906 103.707031 38.917969 103.828125 37.925781 103.953125 C 37.683594 103.46875 37.445312 102.988281 37.195312 102.492188 Z M 37.195312 102.492188 "/>
<path style=" stroke:none;fill-rule:nonzero;fill:rgb(32.549021%,63.529414%,65.490198%);fill-opacity:1;" d="M 112.683594 96.65625 C 113.042969 96.65625 113.40625 96.65625 113.777344 96.65625 C 113.359375 97.558594 113.03125 98.132812 112.320312 98.84375 C 112.078125 98.726562 111.835938 98.605469 111.589844 98.480469 C 112.273438 97.066406 112.273438 97.066406 112.683594 96.65625 Z M 112.683594 96.65625 "/>
<path style=" stroke:none;fill-rule:nonzero;fill:rgb(99.215686%,92.941177%,86.274511%);fill-opacity:1;" d="M 65.277344 48.144531 C 65.398438 48.507812 65.515625 48.867188 65.640625 49.238281 C 65.039062 49.84375 64.4375 50.445312 63.816406 51.0625 C 63.578125 50.945312 63.335938 50.824219 63.089844 50.699219 C 63.808594 49.855469 64.53125 49.015625 65.277344 48.144531 Z M 65.277344 48.144531 "/>
</g>
</svg>
